<?xml version="1.0" encoding="UTF-8" standalone="no"?>
<svg
   xmlns:dc="http://purl.org/dc/elements/1.1/"
   xmlns:cc="http://creativecommons.org/ns#"
   xmlns:rdf="http://www.w3.org/1999/02/22-rdf-syntax-ns#"
   xmlns:svg="http://www.w3.org/2000/svg"
   xmlns="http://www.w3.org/2000/svg"
   xmlns:xlink="http://www.w3.org/1999/xlink"
   xmlns:sodipodi="http://sodipodi.sourceforge.net/DTD/sodipodi-0.dtd"
   xmlns:inkscape="http://www.inkscape.org/namespaces/inkscape"
   width="485"
   height="285"
   viewBox="0 0 128.32291 75.40625"
   version="1.1"
   id="svg8"
   inkscape:version="1.0.1 (3bc2e813f5, 2020-09-07)"
   sodipodi:docname="rigida.svg">
  <defs
     id="defs2">
    <linearGradient
       inkscape:collect="always"
       id="linearGradient2259">
      <stop
         style="stop-color:#010101;stop-opacity:0"
         offset="0"
         id="stop2253" />
      <stop
         style="stop-color:#1a1a1a;stop-opacity:0"
         offset="0.95244682"
         id="stop2255" />
      <stop
         style="stop-color:#2b2b2b;stop-opacity:0.12156864"
         offset="1"
         id="stop2257" />
    </linearGradient>
    <linearGradient
       inkscape:collect="always"
       id="linearGradient2247">
      <stop
         style="stop-color:#010101;stop-opacity:0"
         offset="0"
         id="stop2241" />
      <stop
         style="stop-color:#444444;stop-opacity:0"
         offset="0.97333544"
         id="stop2243" />
      <stop
         style="stop-color:#564e4e;stop-opacity:0.5426181"
         offset="1"
         id="stop2245" />
    </linearGradient>
    <linearGradient
       inkscape:collect="always"
       id="linearGradient2235">
      <stop
         style="stop-color:#010101;stop-opacity:0"
         offset="0"
         id="stop2229" />
      <stop
         style="stop-color:#000000;stop-opacity:0"
         offset="0.94663912"
         id="stop2231" />
      <stop
         style="stop-color:#141414;stop-opacity:0.241469"
         offset="1"
         id="stop2233" />
    </linearGradient>
    <linearGradient
       inkscape:collect="always"
       id="linearGradient2199">
      <stop
         style="stop-color:#010101;stop-opacity:0"
         offset="0"
         id="stop2195" />
      <stop
         style="stop-color:#000000;stop-opacity:0"
         offset="0.72583663"
         id="stop2207" />
      <stop
         style="stop-color:#141414;stop-opacity:0.241469"
         offset="1"
         id="stop2197" />
    </linearGradient>
    <linearGradient
       inkscape:collect="always"
       id="linearGradient2161">
      <stop
         style="stop-color:#483a3d;stop-opacity:1"
         offset="0"
         id="stop2155" />
      <stop
         style="stop-color:#382c2f;stop-opacity:1"
         offset="0.4889597"
         id="stop2157" />
      <stop
         style="stop-color:#0b0909;stop-opacity:1"
         offset="1"
         id="stop2159" />
    </linearGradient>
    <linearGradient
       inkscape:collect="always"
       id="linearGradient1990">
      <stop
         style="stop-color:#363636;stop-opacity:1"
         offset="0"
         id="stop1984" />
      <stop
         style="stop-color:#282520;stop-opacity:1"
         offset="0.4889597"
         id="stop1986" />
      <stop
         style="stop-color:#1c130c;stop-opacity:1"
         offset="1"
         id="stop1988" />
    </linearGradient>
    <linearGradient
       inkscape:collect="always"
       id="linearGradient1941">
      <stop
         style="stop-color:#7c5446;stop-opacity:1"
         offset="0"
         id="stop1937" />
      <stop
         style="stop-color:#dcb1a0;stop-opacity:1"
         offset="1"
         id="stop1939" />
    </linearGradient>
    <linearGradient
       inkscape:collect="always"
       id="linearGradient1935">
      <stop
         style="stop-color:#434343;stop-opacity:1"
         offset="0"
         id="stop1929" />
      <stop
         style="stop-color:#2e2a25;stop-opacity:1"
         offset="0.4889597"
         id="stop1931" />
      <stop
         style="stop-color:#382618;stop-opacity:1"
         offset="1"
         id="stop1933" />
    </linearGradient>
    <linearGradient
       inkscape:collect="always"
       id="linearGradient1903">
      <stop
         style="stop-color:#ccb2ab;stop-opacity:1"
         offset="0"
         id="stop1897" />
      <stop
         style="stop-color:#e9b8b1;stop-opacity:1"
         offset="0.4889597"
         id="stop1899" />
      <stop
         style="stop-color:#60382d;stop-opacity:1"
         offset="1"
         id="stop1901" />
    </linearGradient>
    <linearGradient
       inkscape:collect="always"
       id="linearGradient1813">
      <stop
         style="stop-color:#1d1d1b;stop-opacity:1"
         offset="0"
         id="stop1809" />
      <stop
         style="stop-color:#2a2a29;stop-opacity:1;"
         offset="0.50669038"
         id="stop1825" />
      <stop
         style="stop-color:#353535;stop-opacity:1;"
         offset="0.95178616"
         id="stop1827" />
      <stop
         style="stop-color:#171717;stop-opacity:1"
         offset="1"
         id="stop1811" />
    </linearGradient>
    <filter
       inkscape:label=""
       inkscape:menu="Bevels"
       inkscape:menu-tooltip="Ridged border with inner bevel"
       style="color-interpolation-filters:sRGB"
       id="filter1560">
      <feMorphology
         radius="6.3000000000000007"
         in="SourceAlpha"
         result="result91"
         id="feMorphology1546"
         operator="erode" />
      <feComposite
         operator="out"
         in="SourceGraphic"
         in2="result91"
         id="feComposite1548" />
      <feGaussianBlur
         result="result0"
         stdDeviation="1.2"
         id="feGaussianBlur1550" />
      <feDiffuseLighting
         diffuseConstant="1"
         id="feDiffuseLighting1554">
        <feDistantLight
           elevation="66"
           azimuth="225"
           id="feDistantLight1552" />
      </feDiffuseLighting>
      <feBlend
         mode="multiply"
         in2="SourceGraphic"
         id="feBlend1556" />
      <feComposite
         operator="in"
         in2="SourceAlpha"
         id="feComposite1558" />
    </filter>
    <radialGradient
       inkscape:collect="always"
       xlink:href="#linearGradient1813"
       id="radialGradient1815"
       cx="57.546875"
       cy="39.026043"
       fx="57.546875"
       fy="39.026043"
       r="9.921875"
       gradientUnits="userSpaceOnUse" />
    <linearGradient
       inkscape:collect="always"
       xlink:href="#linearGradient1903"
       id="linearGradient1875"
       x1="57.600937"
       y1="30.074385"
       x2="57.459183"
       y2="47.901882"
       gradientUnits="userSpaceOnUse" />
    <linearGradient
       inkscape:collect="always"
       xlink:href="#linearGradient1935"
       id="linearGradient1885"
       gradientUnits="userSpaceOnUse"
       gradientTransform="matrix(0.23950092,0,0,0.23950092,5.457334,3.699655)"
       x1="217.68837"
       y1="111.62888"
       x2="217.68837"
       y2="183.61497" />
    <linearGradient
       inkscape:collect="always"
       xlink:href="#linearGradient1990"
       id="linearGradient1982"
       gradientUnits="userSpaceOnUse"
       gradientTransform="matrix(0.23950092,0,0,0.23950092,5.457334,3.699655)"
       x1="217.68837"
       y1="111.62888"
       x2="217.68837"
       y2="183.61497" />
    <radialGradient
       inkscape:collect="always"
       xlink:href="#linearGradient1941"
       id="radialGradient2000"
       gradientUnits="userSpaceOnUse"
       gradientTransform="matrix(0.51098265,-6.3773675e-4,0.00115779,0.92765968,28.106115,2.860484)"
       cx="57.567093"
       cy="39.034531"
       fx="57.567093"
       fy="39.034531"
       r="9.0522566" />
    <linearGradient
       inkscape:collect="always"
       xlink:href="#linearGradient2161"
       id="linearGradient2002"
       gradientUnits="userSpaceOnUse"
       gradientTransform="matrix(0.23950092,0,0,0.23950092,5.457334,3.699655)"
       x1="217.68837"
       y1="111.62888"
       x2="217.68837"
       y2="183.61497" />
    <radialGradient
       inkscape:collect="always"
       xlink:href="#linearGradient1941"
       id="radialGradient2171"
       gradientUnits="userSpaceOnUse"
       gradientTransform="matrix(0.51098265,-6.3773675e-4,0.00115779,0.92765968,28.106115,2.860484)"
       cx="57.567093"
       cy="39.034531"
       fx="57.567093"
       fy="39.034531"
       r="9.0522566" />
    <linearGradient
       inkscape:collect="always"
       xlink:href="#linearGradient2161"
       id="linearGradient2173"
       gradientUnits="userSpaceOnUse"
       gradientTransform="matrix(0.23950092,0,0,0.23950092,5.457334,3.699655)"
       x1="217.68837"
       y1="111.62888"
       x2="217.68837"
       y2="183.61497" />
    <radialGradient
       inkscape:collect="always"
       xlink:href="#linearGradient1941"
       id="radialGradient2183"
       gradientUnits="userSpaceOnUse"
       gradientTransform="matrix(0.51098265,-6.3773675e-4,0.00115779,0.92765968,28.106115,2.860484)"
       cx="57.567093"
       cy="39.034531"
       fx="57.567093"
       fy="39.034531"
       r="9.0522566" />
    <linearGradient
       inkscape:collect="always"
       xlink:href="#linearGradient2161"
       id="linearGradient2185"
       gradientUnits="userSpaceOnUse"
       gradientTransform="matrix(0.23950092,0,0,0.23950092,5.457334,3.699655)"
       x1="217.68837"
       y1="111.62888"
       x2="217.68837"
       y2="183.61497" />
    <linearGradient
       inkscape:collect="always"
       xlink:href="#linearGradient2199"
       id="linearGradient2205"
       x1="64.284958"
       y1="15.343285"
       x2="64.284958"
       y2="5.2480388"
       gradientUnits="userSpaceOnUse" />
    <linearGradient
       inkscape:collect="always"
       xlink:href="#linearGradient2235"
       id="linearGradient2219"
       x1="64.161453"
       y1="64.32164"
       x2="64.161453"
       y2="18.184244"
       gradientUnits="userSpaceOnUse" />
    <linearGradient
       inkscape:collect="always"
       xlink:href="#linearGradient2247"
       id="linearGradient2239"
       gradientUnits="userSpaceOnUse"
       x1="64.161453"
       y1="64.32164"
       x2="64.161453"
       y2="18.184244"
       gradientTransform="translate(-128.32291,-82.505886)" />
    <linearGradient
       inkscape:collect="always"
       xlink:href="#linearGradient2259"
       id="linearGradient2251"
       gradientUnits="userSpaceOnUse"
       x1="64.161453"
       y1="64.32164"
       x2="64.161453"
       y2="18.184244"
       gradientTransform="translate(-128.32291,-82.505886)" />
  </defs>
  <sodipodi:namedview
     id="base"
     pagecolor="#474747"
     bordercolor="#656565"
     borderopacity="1"
     inkscape:pageopacity="0"
     inkscape:pageshadow="2"
     inkscape:zoom="1"
     inkscape:cx="313.34033"
     inkscape:cy="159.72089"
     inkscape:document-units="px"
     inkscape:current-layer="layer2"
     showgrid="false"
     fit-margin-top="0"
     fit-margin-left="0"
     fit-margin-right="0"
     fit-margin-bottom="0"
     inkscape:showpageshadow="false"
     borderlayer="true"
     inkscape:window-width="1920"
     inkscape:window-height="1131"
     inkscape:window-x="1920"
     inkscape:window-y="0"
     inkscape:window-maximized="1"
     units="px"
     inkscape:document-rotation="0"
     inkscape:snap-bbox="true"
     inkscape:snap-global="false"
     inkscape:bbox-paths="true"
     inkscape:snap-bbox-edge-midpoints="true"
     inkscape:snap-bbox-midpoints="true" />
  <metadata
     id="metadata5">
    <rdf:RDF>
      <cc:Work
         rdf:about="">
        <dc:format>image/svg+xml</dc:format>
        <dc:type
           rdf:resource="http://purl.org/dc/dcmitype/StillImage" />
        <dc:title />
      </cc:Work>
    </rdf:RDF>
  </metadata>
  <g
     inkscape:groupmode="layer"
     id="layer2"
     inkscape:label="Layer 1">
    <rect
       style="fill:#564e4e;fill-opacity:1;stroke-width:0.606704;stroke-miterlimit:4;stroke-dasharray:none"
       id="rect832"
       width="128.32291"
       height="75.40625"
       x="0"
       y="8.8817842e-16" />
    <text
       xml:space="preserve"
       style="font-style:normal;font-variant:normal;font-weight:normal;font-stretch:normal;font-size:4.93889px;line-height:1.25;font-family:'URW Gothic';-inkscape-font-specification:'URW Gothic, Normal';font-variant-ligatures:normal;font-variant-caps:normal;font-variant-numeric:normal;font-variant-east-asian:normal;fill:#f4f4f4;fill-opacity:0.880057;stroke:none;stroke-width:0.264583"
       x="37.546921"
       y="60.519432"
       id="text2018"><tspan
         sodipodi:role="line"
         id="tspan2016"
         x="37.546921"
         y="60.519432"
         style="font-style:normal;font-variant:normal;font-weight:normal;font-stretch:normal;font-size:4.93889px;font-family:'URW Gothic';-inkscape-font-specification:'URW Gothic, Normal';font-variant-ligatures:normal;font-variant-caps:normal;font-variant-numeric:normal;font-variant-east-asian:normal;fill:#f4f4f4;fill-opacity:0.880057;stroke-width:0.264583">in</tspan></text>
    <text
       xml:space="preserve"
       style="font-style:normal;font-variant:normal;font-weight:normal;font-stretch:normal;font-size:4.93889px;line-height:1.25;font-family:'URW Gothic';-inkscape-font-specification:'URW Gothic, Normal';font-variant-ligatures:normal;font-variant-caps:normal;font-variant-numeric:normal;font-variant-east-asian:normal;fill:#f4f4f4;fill-opacity:0.880057;stroke:none;stroke-width:0.264583"
       x="102.90627"
       y="60.001301"
       id="text2022"><tspan
         sodipodi:role="line"
         id="tspan2020"
         x="102.90627"
         y="60.001301"
         style="font-style:normal;font-variant:normal;font-weight:normal;font-stretch:normal;font-size:4.93889px;font-family:'URW Gothic';-inkscape-font-specification:'URW Gothic, Normal';font-variant-ligatures:normal;font-variant-caps:normal;font-variant-numeric:normal;font-variant-east-asian:normal;fill:#f4f4f4;fill-opacity:0.880057;stroke-width:0.264583">out</tspan></text>
    <text
       xml:space="preserve"
       style="font-style:normal;font-variant:normal;font-weight:normal;font-stretch:normal;font-size:4.93889px;line-height:1.25;font-family:'URW Gothic';-inkscape-font-specification:'URW Gothic, Normal';font-variant-ligatures:normal;font-variant-caps:normal;font-variant-numeric:normal;font-variant-east-asian:normal;fill:#f4f4f4;fill-opacity:0.880057;stroke:none;stroke-width:0.264583"
       x="70.12117"
       y="60.117962"
       id="text2026"><tspan
         sodipodi:role="line"
         id="tspan2024"
         x="70.12117"
         y="60.117962"
         style="font-style:normal;font-variant:normal;font-weight:normal;font-stretch:normal;font-size:4.93889px;font-family:'URW Gothic';-inkscape-font-specification:'URW Gothic, Normal';font-variant-ligatures:normal;font-variant-caps:normal;font-variant-numeric:normal;font-variant-east-asian:normal;fill:#f4f4f4;fill-opacity:0.880057;stroke-width:0.264583">color</tspan></text>
    <path
       style="fill:none;stroke:#000000;stroke-width:0.264583px;stroke-linecap:butt;stroke-linejoin:miter;stroke-opacity:1"
       d="m 31.244936,51.412804 v 5.256149 l 3.910163,1.488458"
       id="path2030" />
    <path
       style="fill:none;stroke:#000000;stroke-width:0.264583px;stroke-linecap:butt;stroke-linejoin:miter;stroke-opacity:1"
       d="m 64.260904,51.412804 v 5.256149 l 3.910163,1.488458"
       id="path2032" />
    <path
       style="fill:none;stroke:#000000;stroke-width:0.264583px;stroke-linecap:butt;stroke-linejoin:miter;stroke-opacity:1"
       d="m 64.260904,51.412804 v 5.256149 l 3.910163,1.488458"
       id="path2034" />
    <path
       style="fill:none;stroke:#000000;stroke-width:0.264583px;stroke-linecap:butt;stroke-linejoin:miter;stroke-opacity:1"
       d="m 97.377367,51.296144 v 5.256149 l 3.910173,1.488458"
       id="path2036" />
    <rect
       style="fill:#342e2e;fill-opacity:1;stroke:#483a3d;stroke-width:1.47822704;stroke-linejoin:round;stroke-miterlimit:4;stroke-dasharray:none;stroke-opacity:1;paint-order:stroke fill markers"
       id="rect2187"
       width="110.85991"
       height="10.095245"
       x="8.8550062"
       y="5.2480388" />
    <text
       xml:space="preserve"
       style="font-style:normal;font-variant:normal;font-weight:normal;font-stretch:normal;font-size:7.05556px;line-height:1.25;font-family:'URW Gothic';-inkscape-font-specification:'URW Gothic, Normal';font-variant-ligatures:normal;font-variant-caps:normal;font-variant-numeric:normal;font-variant-east-asian:normal;fill:#f7ede9;fill-opacity:0.608812;stroke:none;stroke-width:0.264583"
       x="2.6469972"
       y="72.146507"
       id="text2191"><tspan
         sodipodi:role="line"
         x="2.6469972"
         y="72.146507"
         style="font-style:normal;font-variant:normal;font-weight:normal;font-stretch:normal;font-size:7.05556px;font-family:'URW Gothic';-inkscape-font-specification:'URW Gothic, Normal';font-variant-ligatures:normal;font-variant-caps:normal;font-variant-numeric:normal;font-variant-east-asian:normal;fill:#f7ede9;fill-opacity:0.608812;stroke-width:0.264583"
         id="tspan2261">Petal Drive</tspan></text>
    <rect
       style="fill:url(#linearGradient2205);fill-opacity:1;stroke:none;stroke-width:1.47822704;stroke-linejoin:round;stroke-miterlimit:4;stroke-dasharray:none;stroke-opacity:1;paint-order:stroke fill markers"
       id="rect2193"
       width="110.85991"
       height="10.095245"
       x="8.8550062"
       y="5.2480388" />
    <rect
       style="fill:#141414;fill-opacity:0.241469;stroke:none;stroke-width:1.82603;stroke-linejoin:round;stroke-miterlimit:4;stroke-dasharray:none;stroke-opacity:1;paint-order:stroke fill markers"
       id="rect2209"
       width="128.32291"
       height="46.137398"
       x="-2.0140085e-08"
       y="18.184244" />
    <rect
       style="fill:url(#linearGradient2219);fill-opacity:1;stroke:none;stroke-width:1.82603;stroke-linejoin:round;stroke-miterlimit:4;stroke-dasharray:none;stroke-opacity:1;paint-order:stroke fill markers"
       id="rect2211"
       width="128.32291"
       height="46.137398"
       x="-2.0140085e-08"
       y="18.184244" />
    <rect
       style="fill:url(#linearGradient2251);fill-opacity:1;stroke:none;stroke-width:1.82603;stroke-linejoin:round;stroke-miterlimit:4;stroke-dasharray:none;stroke-opacity:1;paint-order:stroke fill markers"
       id="rect2249"
       width="128.32291"
       height="46.137398"
       x="-128.32291"
       y="-64.32164"
       transform="scale(-1)" />
  </g>
  <g
     inkscape:groupmode="layer"
     id="layer3"
     inkscape:label="Layer 2">
    <g
       id="g1998"
       transform="matrix(1.1728213,0,0,1.1728213,-36.190484,-8.077404)"
       style="stroke:none;stroke-width:0.676787;stroke-linejoin:bevel;stroke-miterlimit:4;stroke-dasharray:none;stroke-opacity:1;paint-order:stroke fill markers">
      <circle
         style="fill:url(#radialGradient2000);fill-opacity:1;stroke:#463438;stroke-width:1.35357;stroke-linejoin:bevel;stroke-miterlimit:4;stroke-dasharray:none;stroke-opacity:0.751216;paint-order:stroke fill markers"
         id="circle1992"
         cx="57.567093"
         cy="39.034531"
         r="8.3974199" />
      <path
         id="path1994"
         style="fill:url(#linearGradient2002);fill-opacity:1;stroke:none;stroke-width:0.676787;stroke-linejoin:bevel;stroke-miterlimit:4;stroke-dasharray:none;stroke-opacity:1;paint-order:stroke fill markers"
         d="m 57.043119,30.331971 a 8.7107171,8.7107171 0 0 0 -0.06455,0.0042 8.7107171,8.7107171 0 0 0 -0.121154,0.0094 8.7107171,8.7107171 0 0 0 -0.120685,0.01123 8.7107171,8.7107171 0 0 0 -0.120687,0.01263 8.7107171,8.7107171 0 0 0 -0.120687,0.0145 8.7107171,8.7107171 0 0 0 -0.120684,0.0159 8.7107171,8.7107171 0 0 0 -0.119751,0.01778 8.7107171,8.7107171 0 0 0 -0.12022,0.01965 8.7107171,8.7107171 0 0 0 -0.119281,0.02105 8.7107171,8.7107171 0 0 0 -0.11975,0.02245 8.7107171,8.7107171 0 0 0 -0.118816,0.02433 8.7107171,8.7107171 0 0 0 -0.118347,0.02619 8.7107171,8.7107171 0 0 0 -0.118347,0.0276 8.7107171,8.7107171 0 0 0 -0.11788,0.02947 8.7107171,8.7107171 0 0 0 -0.117411,0.03087 8.7107171,8.7107171 0 0 0 -0.116943,0.03274 8.7107171,8.7107171 0 0 0 -0.116477,0.03414 8.7107171,8.7107171 0 0 0 -0.116476,0.03602 8.7107171,8.7107171 0 0 0 -0.115073,0.03742 8.7107171,8.7107171 0 0 0 -0.115073,0.03929 8.7107171,8.7107171 0 0 0 -0.114604,0.0407 8.7107171,8.7107171 0 0 0 -0.113669,0.0421 8.7107171,8.7107171 0 0 0 -0.113203,0.04397 8.7107171,8.7107171 0 0 0 -0.112733,0.04538 8.7107171,8.7107171 0 0 0 -0.112266,0.04724 8.7107171,8.7107171 0 0 0 -0.11133,0.04865 8.7107171,8.7107171 0 0 0 -0.110395,0.05005 8.7107171,8.7107171 0 0 0 -0.02152,0.0098 11.62185,20.179238 0 0 1 0.03555,0.145478 11.62185,20.179238 0 0 1 0.04491,0.18945 11.62185,20.179238 0 0 1 0.0435,0.189914 11.62185,20.179238 0 0 1 0.04257,0.190854 11.62185,20.179238 0 0 1 0.04116,0.191788 11.62185,20.179238 0 0 1 0.04023,0.192256 11.62185,20.179238 0 0 1 0.03929,0.193192 11.62185,20.179238 0 0 1 0.03789,0.193658 11.62185,20.179238 0 0 1 0.03695,0.194127 11.62185,20.179238 0 0 1 0.03602,0.195062 11.62185,20.179238 0 0 1 0.03462,0.195531 11.62185,20.179238 0 0 1 0.03321,0.196465 11.62185,20.179238 0 0 1 0.03228,0.196932 11.62185,20.179238 0 0 1 0.03134,0.197401 11.62185,20.179238 0 0 1 0.02994,0.197868 11.62185,20.179238 0 0 1 0.029,0.198338 11.62185,20.179238 0 0 1 0.0276,0.198805 11.62185,20.179238 0 0 1 0.02666,0.199272 11.62185,20.179238 0 0 1 0.02526,0.199739 11.62185,20.179238 0 0 1 0,4.7e-4 11.62185,20.179238 0 0 1 0.02432,0.200206 11.62185,20.179238 0 0 1 0.02292,0.200675 11.62185,20.179238 0 0 1 0.02152,0.201145 11.62185,20.179238 0 0 1 0.02105,0.201142 11.62185,20.179238 0 0 1 0.01918,0.202079 11.62185,20.179238 0 0 1 0.01871,0.202079 11.62185,20.179238 0 0 1 0.01684,0.202549 11.62185,20.179238 0 0 1 0.01591,0.202545 11.62185,20.179238 0 0 1 0.01497,0.203013 11.62185,20.179238 0 0 1 0.01356,0.203483 11.62185,20.179238 0 0 1 0.01216,0.203482 11.62185,20.179238 0 0 1 0.01123,0.203952 11.62185,20.179238 0 0 1 0.01029,0.20348 11.62185,20.179238 0 0 1 0.0089,0.203952 11.62185,20.179238 0 0 1 0,4.67e-4 11.62185,20.179238 0 0 1 0.0075,0.203949 11.62185,20.179238 0 0 1 0.0065,0.204419 11.62185,20.179238 0 0 1 0.0051,0.204416 11.62185,20.179238 0 0 1 0.0047,0.204419 11.62185,20.179238 0 0 1 0.0028,0.204419 11.62185,20.179238 0 0 1 0,4.67e-4 11.62185,20.179238 0 0 1 0.0014,0.204417 11.62185,20.179238 0 0 1 4.67e-4,0.181965 11.62185,20.179238 0 0 1 -4.67e-4,0.204419 11.62185,20.179238 0 0 1 -0.0019,0.204416 11.62185,20.179238 0 0 1 0,4.67e-4 11.62185,20.179238 0 0 1 -0.0028,0.204419 11.62185,20.179238 0 0 1 -0.0042,0.204419 11.62185,20.179238 0 0 1 -0.0056,0.204417 11.62185,20.179238 0 0 1 0,4.67e-4 11.62185,20.179238 0 0 1 -0.0065,0.203951 11.62185,20.179238 0 0 1 -0.0075,0.204417 11.62185,20.179238 0 0 1 -0.0094,0.203949 11.62185,20.179238 0 0 1 -0.0098,0.203952 11.62185,20.179238 0 0 1 -0.01123,0.203482 11.62185,20.179238 0 0 1 -0.01263,0.203483 11.62185,20.179238 0 0 1 -0.01403,0.203013 11.62185,20.179238 0 0 1 0,4.69e-4 11.62185,20.179238 0 0 1 -0.0145,0.203013 11.62185,20.179238 0 0 1 -0.01637,0.202548 11.62185,20.179238 0 0 1 -0.01731,0.202546 11.62185,20.179238 0 0 1 -0.01824,0.202079 11.62185,20.179238 0 0 1 -0.01965,0.20161 11.62185,20.179238 0 0 1 0,4.69e-4 11.62185,20.179238 0 0 1 -0.02105,0.201143 11.62185,20.179238 0 0 1 -0.02198,0.201144 11.62185,20.179238 0 0 1 -0.02292,0.200676 11.62185,20.179238 0 0 1 -0.02432,0.200206 11.62185,20.179238 0 0 1 -0.02573,0.199741 11.62185,20.179238 0 0 1 -0.02666,0.199272 11.62185,20.179238 0 0 1 -0.0276,0.198805 11.62185,20.179238 0 0 1 -0.029,0.198336 11.62185,20.179238 0 0 1 -0.02994,0.197868 11.62185,20.179238 0 0 1 -0.03134,0.197402 11.62185,20.179238 0 0 1 -0.03274,0.196467 11.62185,20.179238 0 0 1 0,4.67e-4 11.62185,20.179238 0 0 1 -0.03368,0.195998 11.62185,20.179238 0 0 1 -0.03462,0.195529 11.62185,20.179238 0 0 1 -0.03602,0.195063 11.62185,20.179238 0 0 1 -0.03695,0.194126 11.62185,20.179238 0 0 1 -0.03789,0.19366 11.62185,20.179238 0 0 1 -0.03929,0.193191 11.62185,20.179238 0 0 1 -0.0407,0.192255 11.62185,20.179238 0 0 1 -0.04116,0.19132 11.62185,20.179238 0 0 1 -0.04257,0.190854 11.62185,20.179238 0 0 1 -0.04397,0.189917 11.62185,20.179238 0 0 1 -0.04491,0.189447 11.62185,20.179238 0 0 1 -0.03041,0.124898 8.7107171,8.7107171 0 0 0 0.110396,0.05052 8.7107171,8.7107171 0 0 0 0.110862,0.04865 8.7107171,8.7107171 0 0 0 0.112266,0.04724 8.7107171,8.7107171 0 0 0 0.112266,0.04584 8.7107171,8.7107171 0 0 0 0.1132,0.04444 8.7107171,8.7107171 0 0 0 0.11367,0.04257 8.7107171,8.7107171 0 0 0 0.114136,0.0407 8.7107171,8.7107171 0 0 0 0.115073,0.03976 8.7107171,8.7107171 0 0 0 0.11554,0.03742 8.7107171,8.7107171 0 0 0 0.11601,0.03649 8.7107171,8.7107171 0 0 0 0.116476,0.03462 8.7107171,8.7107171 0 0 0 0.116944,0.03274 8.7107171,8.7107171 0 0 0 0.116943,0.03134 8.7107171,8.7107171 0 0 0 0.11788,0.02947 8.7107171,8.7107171 0 0 0 0.118347,0.02807 8.7107171,8.7107171 0 0 0 0.118347,0.02666 8.7107171,8.7107171 0 0 0 0.118814,0.02433 8.7107171,8.7107171 0 0 0 0.119284,0.02339 8.7107171,8.7107171 0 0 0 0.11975,0.02105 8.7107171,8.7107171 0 0 0 0.119751,0.02012 8.7107171,8.7107171 0 0 0 0.120217,0.01778 8.7107171,8.7107171 0 0 0 0.12022,0.01637 8.7107171,8.7107171 0 0 0 0.120685,0.01497 8.7107171,8.7107171 0 0 0 0.120687,0.01263 8.7107171,8.7107171 0 0 0 0.121153,0.01169 8.7107171,8.7107171 0 0 0 0.120685,0.0094 8.7107171,8.7107171 0 0 0 0.121623,0.008 8.7107171,8.7107171 0 0 0 0.121154,0.0066 8.7107171,8.7107171 0 0 0 0.121154,0.0042 8.7107171,8.7107171 0 0 0 0.121621,0.0028 8.7107171,8.7107171 0 0 0 0.108056,0.0014 8.7107171,8.7107171 0 0 0 0.01356,0 8.7107171,8.7107171 0 0 0 3.6566,-0.81159 11.62185,20.179238 0 0 1 -0.03555,-0.145477 11.62185,20.179238 0 0 1 -0.04491,-0.18945 11.62185,20.179238 0 0 1 -0.0435,-0.189915 11.62185,20.179238 0 0 1 -0.04257,-0.190854 11.62185,20.179238 0 0 1 -0.04116,-0.191787 11.62185,20.179238 0 0 1 -0.04023,-0.192257 11.62185,20.179238 0 0 1 -0.03929,-0.193191 11.62185,20.179238 0 0 1 -0.03789,-0.193658 11.62185,20.179238 0 0 1 -0.03696,-0.194128 11.62185,20.179238 0 0 1 -0.03602,-0.195061 11.62185,20.179238 0 0 1 -0.03462,-0.195531 11.62185,20.179238 0 0 1 -0.03321,-0.196465 11.62185,20.179238 0 0 1 -0.03228,-0.196932 11.62185,20.179238 0 0 1 -0.03134,-0.197402 11.62185,20.179238 0 0 1 -0.02994,-0.197868 11.62185,20.179238 0 0 1 -0.029,-0.198338 11.62185,20.179238 0 0 1 -0.0276,-0.198805 11.62185,20.179238 0 0 1 -0.02666,-0.199272 11.62185,20.179238 0 0 1 -0.02526,-0.200208 11.62185,20.179238 0 0 1 -0.02433,-0.200206 11.62185,20.179238 0 0 1 -0.02292,-0.200676 11.62185,20.179238 0 0 1 -0.02152,-0.201145 11.62185,20.179238 0 0 1 -0.02105,-0.201142 11.62185,20.179238 0 0 1 -0.01918,-0.202079 11.62185,20.179238 0 0 1 -0.01871,-0.202079 11.62185,20.179238 0 0 1 -0.01684,-0.202548 11.62185,20.179238 0 0 1 -0.01591,-0.202546 11.62185,20.179238 0 0 1 -0.01497,-0.203013 11.62185,20.179238 0 0 1 -0.01357,-0.203482 11.62185,20.179238 0 0 1 -0.01216,-0.203483 11.62185,20.179238 0 0 1 -0.01123,-0.203952 11.62185,20.179238 0 0 1 -0.01029,-0.20348 11.62185,20.179238 0 0 1 -0.0089,-0.204418 11.62185,20.179238 0 0 1 -0.0075,-0.20395 11.62185,20.179238 0 0 1 -0.0065,-0.204419 11.62185,20.179238 0 0 1 -0.0051,-0.204416 11.62185,20.179238 0 0 1 -0.0042,-0.204419 11.62185,20.179238 0 0 1 -0.0028,-0.204886 11.62185,20.179238 0 0 1 -0.0014,-0.204416 11.62185,20.179238 0 0 1 -4.67e-4,-0.181966 11.62185,20.179238 0 0 1 4.67e-4,-0.204419 11.62185,20.179238 0 0 1 0.0019,-0.204883 11.62185,20.179238 0 0 1 0.0028,-0.204419 11.62185,20.179238 0 0 1 0.0042,-0.204419 11.62185,20.179238 0 0 1 0.0056,-0.204883 11.62185,20.179238 0 0 1 0.0066,-0.203952 11.62185,20.179238 0 0 1 0.0075,-0.204416 11.62185,20.179238 0 0 1 0.0094,-0.20395 11.62185,20.179238 0 0 1 0.0098,-0.203952 11.62185,20.179238 0 0 1 0.01123,-0.203482 11.62185,20.179238 0 0 1 0.01263,-0.203482 11.62185,20.179238 0 0 1 0.01403,-0.203483 11.62185,20.179238 0 0 1 0.0145,-0.203013 11.62185,20.179238 0 0 1 0.01637,-0.202548 11.62185,20.179238 0 0 1 0.01731,-0.202546 11.62185,20.179238 0 0 1 0.01824,-0.202079 11.62185,20.179238 0 0 1 0.01965,-0.202079 11.62185,20.179238 0 0 1 0.02105,-0.201142 11.62185,20.179238 0 0 1 0.02199,-0.201145 11.62185,20.179238 0 0 1 0.02292,-0.200676 11.62185,20.179238 0 0 1 0.02433,-0.200206 11.62185,20.179238 0 0 1 0.02573,-0.199741 11.62185,20.179238 0 0 1 0.02666,-0.199272 11.62185,20.179238 0 0 1 0.0276,-0.198805 11.62185,20.179238 0 0 1 0.029,-0.198335 11.62185,20.179238 0 0 1 0.02994,-0.197869 11.62185,20.179238 0 0 1 0.03134,-0.197401 11.62185,20.179238 0 0 1 0.03274,-0.196935 11.62185,20.179238 0 0 1 0.03368,-0.195998 11.62185,20.179238 0 0 1 0.03462,-0.195528 11.62185,20.179238 0 0 1 0.03602,-0.195064 11.62185,20.179238 0 0 1 0.03695,-0.194125 11.62185,20.179238 0 0 1 0.03789,-0.193661 11.62185,20.179238 0 0 1 0.03929,-0.193191 11.62185,20.179238 0 0 1 0.0407,-0.192254 11.62185,20.179238 0 0 1 0.04117,-0.191321 11.62185,20.179238 0 0 1 0.04257,-0.190853 11.62185,20.179238 0 0 1 0.04397,-0.189917 11.62185,20.179238 0 0 1 0.04491,-0.189448 11.62185,20.179238 0 0 1 0.03041,-0.124897 8.7107171,8.7107171 0 0 0 -3.128014,-0.793814 v 4.304936 h -1.047817 z" />
      <path
         id="path1996"
         style="fill:#ffffff;fill-opacity:1;stroke:none;stroke-width:0.681671;stroke-linejoin:bevel;stroke-miterlimit:4;stroke-dasharray:none;stroke-opacity:1;paint-order:stroke fill markers"
         d="m 57.041062,30.653416 v 3.983958 h 1.052947 v -3.983526 a 8.7533472,8.0603669 0 0 0 -0.508143,-0.01602 8.7533472,8.0603669 0 0 0 -0.01311,0 8.7533472,8.0603669 0 0 0 -0.108597,8.64e-4 8.7533472,8.0603669 0 0 0 -0.122211,0.0021 8.7533472,8.0603669 0 0 0 -0.121744,0.0039 8.7533472,8.0603669 0 0 0 -0.122212,0.0056 8.7533472,8.0603669 0 0 0 -0.05687,0.0031 z" />
    </g>
    <g
       id="g2169"
       transform="matrix(1.1728213,0,0,1.1728213,-3.3544595,-8.077404)"
       style="stroke:none;stroke-width:0.676787;stroke-linejoin:bevel;stroke-miterlimit:4;stroke-dasharray:none;stroke-opacity:1;paint-order:stroke fill markers">
      <circle
         style="fill:url(#radialGradient2171);fill-opacity:1;stroke:#463438;stroke-width:1.35357;stroke-linejoin:bevel;stroke-miterlimit:4;stroke-dasharray:none;stroke-opacity:0.751216;paint-order:stroke fill markers"
         id="circle2163"
         cx="57.567093"
         cy="39.034531"
         r="8.3974199" />
      <path
         id="path2165"
         style="fill:url(#linearGradient2173);fill-opacity:1;stroke:none;stroke-width:0.676787;stroke-linejoin:bevel;stroke-miterlimit:4;stroke-dasharray:none;stroke-opacity:1;paint-order:stroke fill markers"
         d="m 57.043119,30.331971 a 8.7107171,8.7107171 0 0 0 -0.06455,0.0042 8.7107171,8.7107171 0 0 0 -0.121154,0.0094 8.7107171,8.7107171 0 0 0 -0.120685,0.01123 8.7107171,8.7107171 0 0 0 -0.120687,0.01263 8.7107171,8.7107171 0 0 0 -0.120687,0.0145 8.7107171,8.7107171 0 0 0 -0.120684,0.0159 8.7107171,8.7107171 0 0 0 -0.119751,0.01778 8.7107171,8.7107171 0 0 0 -0.12022,0.01965 8.7107171,8.7107171 0 0 0 -0.119281,0.02105 8.7107171,8.7107171 0 0 0 -0.11975,0.02245 8.7107171,8.7107171 0 0 0 -0.118816,0.02433 8.7107171,8.7107171 0 0 0 -0.118347,0.02619 8.7107171,8.7107171 0 0 0 -0.118347,0.0276 8.7107171,8.7107171 0 0 0 -0.11788,0.02947 8.7107171,8.7107171 0 0 0 -0.117411,0.03087 8.7107171,8.7107171 0 0 0 -0.116943,0.03274 8.7107171,8.7107171 0 0 0 -0.116477,0.03414 8.7107171,8.7107171 0 0 0 -0.116476,0.03602 8.7107171,8.7107171 0 0 0 -0.115073,0.03742 8.7107171,8.7107171 0 0 0 -0.115073,0.03929 8.7107171,8.7107171 0 0 0 -0.114604,0.0407 8.7107171,8.7107171 0 0 0 -0.113669,0.0421 8.7107171,8.7107171 0 0 0 -0.113203,0.04397 8.7107171,8.7107171 0 0 0 -0.112733,0.04538 8.7107171,8.7107171 0 0 0 -0.112266,0.04724 8.7107171,8.7107171 0 0 0 -0.11133,0.04865 8.7107171,8.7107171 0 0 0 -0.110395,0.05005 8.7107171,8.7107171 0 0 0 -0.02152,0.0098 11.62185,20.179238 0 0 1 0.03555,0.145478 11.62185,20.179238 0 0 1 0.04491,0.18945 11.62185,20.179238 0 0 1 0.0435,0.189914 11.62185,20.179238 0 0 1 0.04257,0.190854 11.62185,20.179238 0 0 1 0.04116,0.191788 11.62185,20.179238 0 0 1 0.04023,0.192256 11.62185,20.179238 0 0 1 0.03929,0.193192 11.62185,20.179238 0 0 1 0.03789,0.193658 11.62185,20.179238 0 0 1 0.03695,0.194127 11.62185,20.179238 0 0 1 0.03602,0.195062 11.62185,20.179238 0 0 1 0.03462,0.195531 11.62185,20.179238 0 0 1 0.03321,0.196465 11.62185,20.179238 0 0 1 0.03228,0.196932 11.62185,20.179238 0 0 1 0.03134,0.197401 11.62185,20.179238 0 0 1 0.02994,0.197868 11.62185,20.179238 0 0 1 0.029,0.198338 11.62185,20.179238 0 0 1 0.0276,0.198805 11.62185,20.179238 0 0 1 0.02666,0.199272 11.62185,20.179238 0 0 1 0.02526,0.199739 11.62185,20.179238 0 0 1 0,4.7e-4 11.62185,20.179238 0 0 1 0.02432,0.200206 11.62185,20.179238 0 0 1 0.02292,0.200675 11.62185,20.179238 0 0 1 0.02152,0.201145 11.62185,20.179238 0 0 1 0.02105,0.201142 11.62185,20.179238 0 0 1 0.01918,0.202079 11.62185,20.179238 0 0 1 0.01871,0.202079 11.62185,20.179238 0 0 1 0.01684,0.202549 11.62185,20.179238 0 0 1 0.01591,0.202545 11.62185,20.179238 0 0 1 0.01497,0.203013 11.62185,20.179238 0 0 1 0.01356,0.203483 11.62185,20.179238 0 0 1 0.01216,0.203482 11.62185,20.179238 0 0 1 0.01123,0.203952 11.62185,20.179238 0 0 1 0.01029,0.20348 11.62185,20.179238 0 0 1 0.0089,0.203952 11.62185,20.179238 0 0 1 0,4.67e-4 11.62185,20.179238 0 0 1 0.0075,0.203949 11.62185,20.179238 0 0 1 0.0065,0.204419 11.62185,20.179238 0 0 1 0.0051,0.204416 11.62185,20.179238 0 0 1 0.0047,0.204419 11.62185,20.179238 0 0 1 0.0028,0.204419 11.62185,20.179238 0 0 1 0,4.67e-4 11.62185,20.179238 0 0 1 0.0014,0.204417 11.62185,20.179238 0 0 1 4.67e-4,0.181965 11.62185,20.179238 0 0 1 -4.67e-4,0.204419 11.62185,20.179238 0 0 1 -0.0019,0.204416 11.62185,20.179238 0 0 1 0,4.67e-4 11.62185,20.179238 0 0 1 -0.0028,0.204419 11.62185,20.179238 0 0 1 -0.0042,0.204419 11.62185,20.179238 0 0 1 -0.0056,0.204417 11.62185,20.179238 0 0 1 0,4.67e-4 11.62185,20.179238 0 0 1 -0.0065,0.203951 11.62185,20.179238 0 0 1 -0.0075,0.204417 11.62185,20.179238 0 0 1 -0.0094,0.203949 11.62185,20.179238 0 0 1 -0.0098,0.203952 11.62185,20.179238 0 0 1 -0.01123,0.203482 11.62185,20.179238 0 0 1 -0.01263,0.203483 11.62185,20.179238 0 0 1 -0.01403,0.203013 11.62185,20.179238 0 0 1 0,4.69e-4 11.62185,20.179238 0 0 1 -0.0145,0.203013 11.62185,20.179238 0 0 1 -0.01637,0.202548 11.62185,20.179238 0 0 1 -0.01731,0.202546 11.62185,20.179238 0 0 1 -0.01824,0.202079 11.62185,20.179238 0 0 1 -0.01965,0.20161 11.62185,20.179238 0 0 1 0,4.69e-4 11.62185,20.179238 0 0 1 -0.02105,0.201143 11.62185,20.179238 0 0 1 -0.02198,0.201144 11.62185,20.179238 0 0 1 -0.02292,0.200676 11.62185,20.179238 0 0 1 -0.02432,0.200206 11.62185,20.179238 0 0 1 -0.02573,0.199741 11.62185,20.179238 0 0 1 -0.02666,0.199272 11.62185,20.179238 0 0 1 -0.0276,0.198805 11.62185,20.179238 0 0 1 -0.029,0.198336 11.62185,20.179238 0 0 1 -0.02994,0.197868 11.62185,20.179238 0 0 1 -0.03134,0.197402 11.62185,20.179238 0 0 1 -0.03274,0.196467 11.62185,20.179238 0 0 1 0,4.67e-4 11.62185,20.179238 0 0 1 -0.03368,0.195998 11.62185,20.179238 0 0 1 -0.03462,0.195529 11.62185,20.179238 0 0 1 -0.03602,0.195063 11.62185,20.179238 0 0 1 -0.03695,0.194126 11.62185,20.179238 0 0 1 -0.03789,0.19366 11.62185,20.179238 0 0 1 -0.03929,0.193191 11.62185,20.179238 0 0 1 -0.0407,0.192255 11.62185,20.179238 0 0 1 -0.04116,0.19132 11.62185,20.179238 0 0 1 -0.04257,0.190854 11.62185,20.179238 0 0 1 -0.04397,0.189917 11.62185,20.179238 0 0 1 -0.04491,0.189447 11.62185,20.179238 0 0 1 -0.03041,0.124898 8.7107171,8.7107171 0 0 0 0.110396,0.05052 8.7107171,8.7107171 0 0 0 0.110862,0.04865 8.7107171,8.7107171 0 0 0 0.112266,0.04724 8.7107171,8.7107171 0 0 0 0.112266,0.04584 8.7107171,8.7107171 0 0 0 0.1132,0.04444 8.7107171,8.7107171 0 0 0 0.11367,0.04257 8.7107171,8.7107171 0 0 0 0.114136,0.0407 8.7107171,8.7107171 0 0 0 0.115073,0.03976 8.7107171,8.7107171 0 0 0 0.11554,0.03742 8.7107171,8.7107171 0 0 0 0.11601,0.03649 8.7107171,8.7107171 0 0 0 0.116476,0.03462 8.7107171,8.7107171 0 0 0 0.116944,0.03274 8.7107171,8.7107171 0 0 0 0.116943,0.03134 8.7107171,8.7107171 0 0 0 0.11788,0.02947 8.7107171,8.7107171 0 0 0 0.118347,0.02807 8.7107171,8.7107171 0 0 0 0.118347,0.02666 8.7107171,8.7107171 0 0 0 0.118814,0.02433 8.7107171,8.7107171 0 0 0 0.119284,0.02339 8.7107171,8.7107171 0 0 0 0.11975,0.02105 8.7107171,8.7107171 0 0 0 0.119751,0.02012 8.7107171,8.7107171 0 0 0 0.120217,0.01778 8.7107171,8.7107171 0 0 0 0.12022,0.01637 8.7107171,8.7107171 0 0 0 0.120685,0.01497 8.7107171,8.7107171 0 0 0 0.120687,0.01263 8.7107171,8.7107171 0 0 0 0.121153,0.01169 8.7107171,8.7107171 0 0 0 0.120685,0.0094 8.7107171,8.7107171 0 0 0 0.121623,0.008 8.7107171,8.7107171 0 0 0 0.121154,0.0066 8.7107171,8.7107171 0 0 0 0.121154,0.0042 8.7107171,8.7107171 0 0 0 0.121621,0.0028 8.7107171,8.7107171 0 0 0 0.108056,0.0014 8.7107171,8.7107171 0 0 0 0.01356,0 8.7107171,8.7107171 0 0 0 3.6566,-0.81159 11.62185,20.179238 0 0 1 -0.03555,-0.145477 11.62185,20.179238 0 0 1 -0.04491,-0.18945 11.62185,20.179238 0 0 1 -0.0435,-0.189915 11.62185,20.179238 0 0 1 -0.04257,-0.190854 11.62185,20.179238 0 0 1 -0.04116,-0.191787 11.62185,20.179238 0 0 1 -0.04023,-0.192257 11.62185,20.179238 0 0 1 -0.03929,-0.193191 11.62185,20.179238 0 0 1 -0.03789,-0.193658 11.62185,20.179238 0 0 1 -0.03696,-0.194128 11.62185,20.179238 0 0 1 -0.03602,-0.195061 11.62185,20.179238 0 0 1 -0.03462,-0.195531 11.62185,20.179238 0 0 1 -0.03321,-0.196465 11.62185,20.179238 0 0 1 -0.03228,-0.196932 11.62185,20.179238 0 0 1 -0.03134,-0.197402 11.62185,20.179238 0 0 1 -0.02994,-0.197868 11.62185,20.179238 0 0 1 -0.029,-0.198338 11.62185,20.179238 0 0 1 -0.0276,-0.198805 11.62185,20.179238 0 0 1 -0.02666,-0.199272 11.62185,20.179238 0 0 1 -0.02526,-0.200208 11.62185,20.179238 0 0 1 -0.02433,-0.200206 11.62185,20.179238 0 0 1 -0.02292,-0.200676 11.62185,20.179238 0 0 1 -0.02152,-0.201145 11.62185,20.179238 0 0 1 -0.02105,-0.201142 11.62185,20.179238 0 0 1 -0.01918,-0.202079 11.62185,20.179238 0 0 1 -0.01871,-0.202079 11.62185,20.179238 0 0 1 -0.01684,-0.202548 11.62185,20.179238 0 0 1 -0.01591,-0.202546 11.62185,20.179238 0 0 1 -0.01497,-0.203013 11.62185,20.179238 0 0 1 -0.01357,-0.203482 11.62185,20.179238 0 0 1 -0.01216,-0.203483 11.62185,20.179238 0 0 1 -0.01123,-0.203952 11.62185,20.179238 0 0 1 -0.01029,-0.20348 11.62185,20.179238 0 0 1 -0.0089,-0.204418 11.62185,20.179238 0 0 1 -0.0075,-0.20395 11.62185,20.179238 0 0 1 -0.0065,-0.204419 11.62185,20.179238 0 0 1 -0.0051,-0.204416 11.62185,20.179238 0 0 1 -0.0042,-0.204419 11.62185,20.179238 0 0 1 -0.0028,-0.204886 11.62185,20.179238 0 0 1 -0.0014,-0.204416 11.62185,20.179238 0 0 1 -4.67e-4,-0.181966 11.62185,20.179238 0 0 1 4.67e-4,-0.204419 11.62185,20.179238 0 0 1 0.0019,-0.204883 11.62185,20.179238 0 0 1 0.0028,-0.204419 11.62185,20.179238 0 0 1 0.0042,-0.204419 11.62185,20.179238 0 0 1 0.0056,-0.204883 11.62185,20.179238 0 0 1 0.0066,-0.203952 11.62185,20.179238 0 0 1 0.0075,-0.204416 11.62185,20.179238 0 0 1 0.0094,-0.20395 11.62185,20.179238 0 0 1 0.0098,-0.203952 11.62185,20.179238 0 0 1 0.01123,-0.203482 11.62185,20.179238 0 0 1 0.01263,-0.203482 11.62185,20.179238 0 0 1 0.01403,-0.203483 11.62185,20.179238 0 0 1 0.0145,-0.203013 11.62185,20.179238 0 0 1 0.01637,-0.202548 11.62185,20.179238 0 0 1 0.01731,-0.202546 11.62185,20.179238 0 0 1 0.01824,-0.202079 11.62185,20.179238 0 0 1 0.01965,-0.202079 11.62185,20.179238 0 0 1 0.02105,-0.201142 11.62185,20.179238 0 0 1 0.02199,-0.201145 11.62185,20.179238 0 0 1 0.02292,-0.200676 11.62185,20.179238 0 0 1 0.02433,-0.200206 11.62185,20.179238 0 0 1 0.02573,-0.199741 11.62185,20.179238 0 0 1 0.02666,-0.199272 11.62185,20.179238 0 0 1 0.0276,-0.198805 11.62185,20.179238 0 0 1 0.029,-0.198335 11.62185,20.179238 0 0 1 0.02994,-0.197869 11.62185,20.179238 0 0 1 0.03134,-0.197401 11.62185,20.179238 0 0 1 0.03274,-0.196935 11.62185,20.179238 0 0 1 0.03368,-0.195998 11.62185,20.179238 0 0 1 0.03462,-0.195528 11.62185,20.179238 0 0 1 0.03602,-0.195064 11.62185,20.179238 0 0 1 0.03695,-0.194125 11.62185,20.179238 0 0 1 0.03789,-0.193661 11.62185,20.179238 0 0 1 0.03929,-0.193191 11.62185,20.179238 0 0 1 0.0407,-0.192254 11.62185,20.179238 0 0 1 0.04117,-0.191321 11.62185,20.179238 0 0 1 0.04257,-0.190853 11.62185,20.179238 0 0 1 0.04397,-0.189917 11.62185,20.179238 0 0 1 0.04491,-0.189448 11.62185,20.179238 0 0 1 0.03041,-0.124897 8.7107171,8.7107171 0 0 0 -3.128014,-0.793814 v 4.304936 h -1.047817 z" />
      <path
         id="path2167"
         style="fill:#ffffff;fill-opacity:1;stroke:none;stroke-width:0.681671;stroke-linejoin:bevel;stroke-miterlimit:4;stroke-dasharray:none;stroke-opacity:1;paint-order:stroke fill markers"
         d="m 57.041062,30.653416 v 3.983958 h 1.052947 v -3.983526 a 8.7533472,8.0603669 0 0 0 -0.508143,-0.01602 8.7533472,8.0603669 0 0 0 -0.01311,0 8.7533472,8.0603669 0 0 0 -0.108597,8.64e-4 8.7533472,8.0603669 0 0 0 -0.122211,0.0021 8.7533472,8.0603669 0 0 0 -0.121744,0.0039 8.7533472,8.0603669 0 0 0 -0.122212,0.0056 8.7533472,8.0603669 0 0 0 -0.05687,0.0031 z" />
    </g>
    <g
       id="g2181"
       transform="matrix(1.1728213,0,0,1.1728213,29.758773,-8.077404)"
       style="stroke:none;stroke-width:0.676787;stroke-linejoin:bevel;stroke-miterlimit:4;stroke-dasharray:none;stroke-opacity:1;paint-order:stroke fill markers">
      <circle
         style="fill:url(#radialGradient2183);fill-opacity:1;stroke:#463438;stroke-width:1.35357;stroke-linejoin:bevel;stroke-miterlimit:4;stroke-dasharray:none;stroke-opacity:0.751216;paint-order:stroke fill markers"
         id="circle2175"
         cx="57.567093"
         cy="39.034531"
         r="8.3974199" />
      <path
         id="path2177"
         style="fill:url(#linearGradient2185);fill-opacity:1;stroke:none;stroke-width:0.676787;stroke-linejoin:bevel;stroke-miterlimit:4;stroke-dasharray:none;stroke-opacity:1;paint-order:stroke fill markers"
         d="m 57.043119,30.331971 a 8.7107171,8.7107171 0 0 0 -0.06455,0.0042 8.7107171,8.7107171 0 0 0 -0.121154,0.0094 8.7107171,8.7107171 0 0 0 -0.120685,0.01123 8.7107171,8.7107171 0 0 0 -0.120687,0.01263 8.7107171,8.7107171 0 0 0 -0.120687,0.0145 8.7107171,8.7107171 0 0 0 -0.120684,0.0159 8.7107171,8.7107171 0 0 0 -0.119751,0.01778 8.7107171,8.7107171 0 0 0 -0.12022,0.01965 8.7107171,8.7107171 0 0 0 -0.119281,0.02105 8.7107171,8.7107171 0 0 0 -0.11975,0.02245 8.7107171,8.7107171 0 0 0 -0.118816,0.02433 8.7107171,8.7107171 0 0 0 -0.118347,0.02619 8.7107171,8.7107171 0 0 0 -0.118347,0.0276 8.7107171,8.7107171 0 0 0 -0.11788,0.02947 8.7107171,8.7107171 0 0 0 -0.117411,0.03087 8.7107171,8.7107171 0 0 0 -0.116943,0.03274 8.7107171,8.7107171 0 0 0 -0.116477,0.03414 8.7107171,8.7107171 0 0 0 -0.116476,0.03602 8.7107171,8.7107171 0 0 0 -0.115073,0.03742 8.7107171,8.7107171 0 0 0 -0.115073,0.03929 8.7107171,8.7107171 0 0 0 -0.114604,0.0407 8.7107171,8.7107171 0 0 0 -0.113669,0.0421 8.7107171,8.7107171 0 0 0 -0.113203,0.04397 8.7107171,8.7107171 0 0 0 -0.112733,0.04538 8.7107171,8.7107171 0 0 0 -0.112266,0.04724 8.7107171,8.7107171 0 0 0 -0.11133,0.04865 8.7107171,8.7107171 0 0 0 -0.110395,0.05005 8.7107171,8.7107171 0 0 0 -0.02152,0.0098 11.62185,20.179238 0 0 1 0.03555,0.145478 11.62185,20.179238 0 0 1 0.04491,0.18945 11.62185,20.179238 0 0 1 0.0435,0.189914 11.62185,20.179238 0 0 1 0.04257,0.190854 11.62185,20.179238 0 0 1 0.04116,0.191788 11.62185,20.179238 0 0 1 0.04023,0.192256 11.62185,20.179238 0 0 1 0.03929,0.193192 11.62185,20.179238 0 0 1 0.03789,0.193658 11.62185,20.179238 0 0 1 0.03695,0.194127 11.62185,20.179238 0 0 1 0.03602,0.195062 11.62185,20.179238 0 0 1 0.03462,0.195531 11.62185,20.179238 0 0 1 0.03321,0.196465 11.62185,20.179238 0 0 1 0.03228,0.196932 11.62185,20.179238 0 0 1 0.03134,0.197401 11.62185,20.179238 0 0 1 0.02994,0.197868 11.62185,20.179238 0 0 1 0.029,0.198338 11.62185,20.179238 0 0 1 0.0276,0.198805 11.62185,20.179238 0 0 1 0.02666,0.199272 11.62185,20.179238 0 0 1 0.02526,0.199739 11.62185,20.179238 0 0 1 0,4.7e-4 11.62185,20.179238 0 0 1 0.02432,0.200206 11.62185,20.179238 0 0 1 0.02292,0.200675 11.62185,20.179238 0 0 1 0.02152,0.201145 11.62185,20.179238 0 0 1 0.02105,0.201142 11.62185,20.179238 0 0 1 0.01918,0.202079 11.62185,20.179238 0 0 1 0.01871,0.202079 11.62185,20.179238 0 0 1 0.01684,0.202549 11.62185,20.179238 0 0 1 0.01591,0.202545 11.62185,20.179238 0 0 1 0.01497,0.203013 11.62185,20.179238 0 0 1 0.01356,0.203483 11.62185,20.179238 0 0 1 0.01216,0.203482 11.62185,20.179238 0 0 1 0.01123,0.203952 11.62185,20.179238 0 0 1 0.01029,0.20348 11.62185,20.179238 0 0 1 0.0089,0.203952 11.62185,20.179238 0 0 1 0,4.67e-4 11.62185,20.179238 0 0 1 0.0075,0.203949 11.62185,20.179238 0 0 1 0.0065,0.204419 11.62185,20.179238 0 0 1 0.0051,0.204416 11.62185,20.179238 0 0 1 0.0047,0.204419 11.62185,20.179238 0 0 1 0.0028,0.204419 11.62185,20.179238 0 0 1 0,4.67e-4 11.62185,20.179238 0 0 1 0.0014,0.204417 11.62185,20.179238 0 0 1 4.67e-4,0.181965 11.62185,20.179238 0 0 1 -4.67e-4,0.204419 11.62185,20.179238 0 0 1 -0.0019,0.204416 11.62185,20.179238 0 0 1 0,4.67e-4 11.62185,20.179238 0 0 1 -0.0028,0.204419 11.62185,20.179238 0 0 1 -0.0042,0.204419 11.62185,20.179238 0 0 1 -0.0056,0.204417 11.62185,20.179238 0 0 1 0,4.67e-4 11.62185,20.179238 0 0 1 -0.0065,0.203951 11.62185,20.179238 0 0 1 -0.0075,0.204417 11.62185,20.179238 0 0 1 -0.0094,0.203949 11.62185,20.179238 0 0 1 -0.0098,0.203952 11.62185,20.179238 0 0 1 -0.01123,0.203482 11.62185,20.179238 0 0 1 -0.01263,0.203483 11.62185,20.179238 0 0 1 -0.01403,0.203013 11.62185,20.179238 0 0 1 0,4.69e-4 11.62185,20.179238 0 0 1 -0.0145,0.203013 11.62185,20.179238 0 0 1 -0.01637,0.202548 11.62185,20.179238 0 0 1 -0.01731,0.202546 11.62185,20.179238 0 0 1 -0.01824,0.202079 11.62185,20.179238 0 0 1 -0.01965,0.20161 11.62185,20.179238 0 0 1 0,4.69e-4 11.62185,20.179238 0 0 1 -0.02105,0.201143 11.62185,20.179238 0 0 1 -0.02198,0.201144 11.62185,20.179238 0 0 1 -0.02292,0.200676 11.62185,20.179238 0 0 1 -0.02432,0.200206 11.62185,20.179238 0 0 1 -0.02573,0.199741 11.62185,20.179238 0 0 1 -0.02666,0.199272 11.62185,20.179238 0 0 1 -0.0276,0.198805 11.62185,20.179238 0 0 1 -0.029,0.198336 11.62185,20.179238 0 0 1 -0.02994,0.197868 11.62185,20.179238 0 0 1 -0.03134,0.197402 11.62185,20.179238 0 0 1 -0.03274,0.196467 11.62185,20.179238 0 0 1 0,4.67e-4 11.62185,20.179238 0 0 1 -0.03368,0.195998 11.62185,20.179238 0 0 1 -0.03462,0.195529 11.62185,20.179238 0 0 1 -0.03602,0.195063 11.62185,20.179238 0 0 1 -0.03695,0.194126 11.62185,20.179238 0 0 1 -0.03789,0.19366 11.62185,20.179238 0 0 1 -0.03929,0.193191 11.62185,20.179238 0 0 1 -0.0407,0.192255 11.62185,20.179238 0 0 1 -0.04116,0.19132 11.62185,20.179238 0 0 1 -0.04257,0.190854 11.62185,20.179238 0 0 1 -0.04397,0.189917 11.62185,20.179238 0 0 1 -0.04491,0.189447 11.62185,20.179238 0 0 1 -0.03041,0.124898 8.7107171,8.7107171 0 0 0 0.110396,0.05052 8.7107171,8.7107171 0 0 0 0.110862,0.04865 8.7107171,8.7107171 0 0 0 0.112266,0.04724 8.7107171,8.7107171 0 0 0 0.112266,0.04584 8.7107171,8.7107171 0 0 0 0.1132,0.04444 8.7107171,8.7107171 0 0 0 0.11367,0.04257 8.7107171,8.7107171 0 0 0 0.114136,0.0407 8.7107171,8.7107171 0 0 0 0.115073,0.03976 8.7107171,8.7107171 0 0 0 0.11554,0.03742 8.7107171,8.7107171 0 0 0 0.11601,0.03649 8.7107171,8.7107171 0 0 0 0.116476,0.03462 8.7107171,8.7107171 0 0 0 0.116944,0.03274 8.7107171,8.7107171 0 0 0 0.116943,0.03134 8.7107171,8.7107171 0 0 0 0.11788,0.02947 8.7107171,8.7107171 0 0 0 0.118347,0.02807 8.7107171,8.7107171 0 0 0 0.118347,0.02666 8.7107171,8.7107171 0 0 0 0.118814,0.02433 8.7107171,8.7107171 0 0 0 0.119284,0.02339 8.7107171,8.7107171 0 0 0 0.11975,0.02105 8.7107171,8.7107171 0 0 0 0.119751,0.02012 8.7107171,8.7107171 0 0 0 0.120217,0.01778 8.7107171,8.7107171 0 0 0 0.12022,0.01637 8.7107171,8.7107171 0 0 0 0.120685,0.01497 8.7107171,8.7107171 0 0 0 0.120687,0.01263 8.7107171,8.7107171 0 0 0 0.121153,0.01169 8.7107171,8.7107171 0 0 0 0.120685,0.0094 8.7107171,8.7107171 0 0 0 0.121623,0.008 8.7107171,8.7107171 0 0 0 0.121154,0.0066 8.7107171,8.7107171 0 0 0 0.121154,0.0042 8.7107171,8.7107171 0 0 0 0.121621,0.0028 8.7107171,8.7107171 0 0 0 0.108056,0.0014 8.7107171,8.7107171 0 0 0 0.01356,0 8.7107171,8.7107171 0 0 0 3.6566,-0.81159 11.62185,20.179238 0 0 1 -0.03555,-0.145477 11.62185,20.179238 0 0 1 -0.04491,-0.18945 11.62185,20.179238 0 0 1 -0.0435,-0.189915 11.62185,20.179238 0 0 1 -0.04257,-0.190854 11.62185,20.179238 0 0 1 -0.04116,-0.191787 11.62185,20.179238 0 0 1 -0.04023,-0.192257 11.62185,20.179238 0 0 1 -0.03929,-0.193191 11.62185,20.179238 0 0 1 -0.03789,-0.193658 11.62185,20.179238 0 0 1 -0.03696,-0.194128 11.62185,20.179238 0 0 1 -0.03602,-0.195061 11.62185,20.179238 0 0 1 -0.03462,-0.195531 11.62185,20.179238 0 0 1 -0.03321,-0.196465 11.62185,20.179238 0 0 1 -0.03228,-0.196932 11.62185,20.179238 0 0 1 -0.03134,-0.197402 11.62185,20.179238 0 0 1 -0.02994,-0.197868 11.62185,20.179238 0 0 1 -0.029,-0.198338 11.62185,20.179238 0 0 1 -0.0276,-0.198805 11.62185,20.179238 0 0 1 -0.02666,-0.199272 11.62185,20.179238 0 0 1 -0.02526,-0.200208 11.62185,20.179238 0 0 1 -0.02433,-0.200206 11.62185,20.179238 0 0 1 -0.02292,-0.200676 11.62185,20.179238 0 0 1 -0.02152,-0.201145 11.62185,20.179238 0 0 1 -0.02105,-0.201142 11.62185,20.179238 0 0 1 -0.01918,-0.202079 11.62185,20.179238 0 0 1 -0.01871,-0.202079 11.62185,20.179238 0 0 1 -0.01684,-0.202548 11.62185,20.179238 0 0 1 -0.01591,-0.202546 11.62185,20.179238 0 0 1 -0.01497,-0.203013 11.62185,20.179238 0 0 1 -0.01357,-0.203482 11.62185,20.179238 0 0 1 -0.01216,-0.203483 11.62185,20.179238 0 0 1 -0.01123,-0.203952 11.62185,20.179238 0 0 1 -0.01029,-0.20348 11.62185,20.179238 0 0 1 -0.0089,-0.204418 11.62185,20.179238 0 0 1 -0.0075,-0.20395 11.62185,20.179238 0 0 1 -0.0065,-0.204419 11.62185,20.179238 0 0 1 -0.0051,-0.204416 11.62185,20.179238 0 0 1 -0.0042,-0.204419 11.62185,20.179238 0 0 1 -0.0028,-0.204886 11.62185,20.179238 0 0 1 -0.0014,-0.204416 11.62185,20.179238 0 0 1 -4.67e-4,-0.181966 11.62185,20.179238 0 0 1 4.67e-4,-0.204419 11.62185,20.179238 0 0 1 0.0019,-0.204883 11.62185,20.179238 0 0 1 0.0028,-0.204419 11.62185,20.179238 0 0 1 0.0042,-0.204419 11.62185,20.179238 0 0 1 0.0056,-0.204883 11.62185,20.179238 0 0 1 0.0066,-0.203952 11.62185,20.179238 0 0 1 0.0075,-0.204416 11.62185,20.179238 0 0 1 0.0094,-0.20395 11.62185,20.179238 0 0 1 0.0098,-0.203952 11.62185,20.179238 0 0 1 0.01123,-0.203482 11.62185,20.179238 0 0 1 0.01263,-0.203482 11.62185,20.179238 0 0 1 0.01403,-0.203483 11.62185,20.179238 0 0 1 0.0145,-0.203013 11.62185,20.179238 0 0 1 0.01637,-0.202548 11.62185,20.179238 0 0 1 0.01731,-0.202546 11.62185,20.179238 0 0 1 0.01824,-0.202079 11.62185,20.179238 0 0 1 0.01965,-0.202079 11.62185,20.179238 0 0 1 0.02105,-0.201142 11.62185,20.179238 0 0 1 0.02199,-0.201145 11.62185,20.179238 0 0 1 0.02292,-0.200676 11.62185,20.179238 0 0 1 0.02433,-0.200206 11.62185,20.179238 0 0 1 0.02573,-0.199741 11.62185,20.179238 0 0 1 0.02666,-0.199272 11.62185,20.179238 0 0 1 0.0276,-0.198805 11.62185,20.179238 0 0 1 0.029,-0.198335 11.62185,20.179238 0 0 1 0.02994,-0.197869 11.62185,20.179238 0 0 1 0.03134,-0.197401 11.62185,20.179238 0 0 1 0.03274,-0.196935 11.62185,20.179238 0 0 1 0.03368,-0.195998 11.62185,20.179238 0 0 1 0.03462,-0.195528 11.62185,20.179238 0 0 1 0.03602,-0.195064 11.62185,20.179238 0 0 1 0.03695,-0.194125 11.62185,20.179238 0 0 1 0.03789,-0.193661 11.62185,20.179238 0 0 1 0.03929,-0.193191 11.62185,20.179238 0 0 1 0.0407,-0.192254 11.62185,20.179238 0 0 1 0.04117,-0.191321 11.62185,20.179238 0 0 1 0.04257,-0.190853 11.62185,20.179238 0 0 1 0.04397,-0.189917 11.62185,20.179238 0 0 1 0.04491,-0.189448 11.62185,20.179238 0 0 1 0.03041,-0.124897 8.7107171,8.7107171 0 0 0 -3.128014,-0.793814 v 4.304936 h -1.047817 z" />
      <path
         id="path2179"
         style="fill:#ffffff;fill-opacity:1;stroke:none;stroke-width:0.681671;stroke-linejoin:bevel;stroke-miterlimit:4;stroke-dasharray:none;stroke-opacity:1;paint-order:stroke fill markers"
         d="m 57.041062,30.653416 v 3.983958 h 1.052947 v -3.983526 a 8.7533472,8.0603669 0 0 0 -0.508143,-0.01602 8.7533472,8.0603669 0 0 0 -0.01311,0 8.7533472,8.0603669 0 0 0 -0.108597,8.64e-4 8.7533472,8.0603669 0 0 0 -0.122211,0.0021 8.7533472,8.0603669 0 0 0 -0.121744,0.0039 8.7533472,8.0603669 0 0 0 -0.122212,0.0056 8.7533472,8.0603669 0 0 0 -0.05687,0.0031 z" />
    </g>
  </g>
</svg>
